# xmcd CD database file
#
# Track frame offsets:
#	150
#	18028
#	34108
#	77189
#	332550
#
# Disc length: 4440 seconds
#
# Revision: 0
# Processed by: cddbd v1.5PL3 Copyright (c) Steve Scherf et al.
# Submitted via: CDex 1.51
#
DISCID=30115605
DTITLE=Takkyu Ishino - The Rising Suns
DYEAR=2004
DGENRE=Techno
TTITLE0=The Rising Suns
TTITLE1=Warm Leatherette
TTITLE2=The Rising Suns(Discotheque)
TTITLE3=Data1
TTITLE4=Data2
EXTD=YEAR: 2004
EXTT0=
EXTT1=
EXTT2=
EXTT3=
EXTT4=
PLAYORDER=
